<svg width="237" height="50" viewBox="0 0 237 50" fill="none" xmlns="http://www.w3.org/2000/svg">
<path d="M12.2501 12.1662C12.1632 11.3527 11.7967 10.7192 11.1509 10.2658C10.5112 9.81247 9.67898 9.58579 8.65426 9.58579C7.93385 9.58579 7.31591 9.69447 6.80044 9.91184C6.28497 10.1292 5.89061 10.4242 5.61735 10.7968C5.34409 11.1695 5.20436 11.5949 5.19815 12.0731C5.19815 12.4705 5.2882 12.8152 5.4683 13.1071C5.65461 13.399 5.90614 13.6474 6.22287 13.8524C6.5396 14.0511 6.89049 14.2188 7.27554 14.3554C7.66059 14.492 8.04874 14.6069 8.44 14.7001L10.2286 15.1472C10.949 15.3149 11.6415 15.5416 12.306 15.8273C12.9767 16.113 13.576 16.4732 14.1039 16.9079C14.638 17.3426 15.0603 17.8674 15.3709 18.4823C15.6814 19.0971 15.8366 19.8175 15.8366 20.6435C15.8366 21.7614 15.551 22.7457 14.9796 23.5966C14.4082 24.4412 13.5822 25.1026 12.5016 25.5808C11.4272 26.0528 10.1261 26.2888 8.59837 26.2888C7.11407 26.2888 5.8254 26.059 4.73236 25.5994C3.64553 25.1399 2.7947 24.4691 2.17987 23.5872C1.57124 22.7054 1.24209 21.6309 1.19241 20.364H4.59263C4.64231 21.0285 4.84725 21.5813 5.20746 22.0222C5.56767 22.4631 6.03656 22.7923 6.61413 23.0097C7.19791 23.227 7.85001 23.3357 8.57042 23.3357C9.32188 23.3357 9.98019 23.2239 10.5453 23.0004C11.1167 22.7706 11.5639 22.4538 11.8868 22.0502C12.2097 21.6403 12.3743 21.1621 12.3805 20.6155C12.3743 20.1187 12.2284 19.7088 11.9427 19.3859C11.657 19.0567 11.2564 18.7835 10.741 18.5661C10.2317 18.3425 9.63551 18.1438 8.95236 17.9699L6.78181 17.411C5.21057 17.0073 3.96848 16.3955 3.05554 15.5758C2.14882 14.7498 1.69545 13.6536 1.69545 12.2873C1.69545 11.1632 1.99976 10.1789 2.60839 9.33426C3.22322 8.48964 4.05853 7.83444 5.1143 7.36866C6.17008 6.89666 7.36559 6.66067 8.70084 6.66067C10.0547 6.66067 11.2409 6.89666 12.2594 7.36866C13.2841 7.83444 14.0884 8.48343 14.6722 9.31563C15.256 10.1416 15.5572 11.0918 15.5758 12.1662H12.2501ZM27.8888 19.9821V11.6911H31.2611V26H27.9913V23.4568H27.8422C27.5193 24.258 26.9883 24.9132 26.2492 25.4224C25.5164 25.9317 24.6128 26.1863 23.5384 26.1863C22.6006 26.1863 21.7715 25.9783 21.0511 25.5622C20.3369 25.1399 19.7779 24.5281 19.3743 23.727C18.9706 22.9196 18.7687 21.9446 18.7687 20.8019V11.6911H22.141V20.2802C22.141 21.1869 22.3894 21.9073 22.8863 22.4414C23.3831 22.9755 24.0352 23.2426 24.8426 23.2426C25.3394 23.2426 25.8207 23.1215 26.2865 22.8792C26.7523 22.637 27.1342 22.2768 27.4323 21.7986C27.7366 21.3142 27.8888 20.7087 27.8888 19.9821ZM34.8779 26V6.9215H38.2501V14.0573H38.3899C38.5638 13.7095 38.8091 13.34 39.1258 12.9487C39.4426 12.5513 39.8711 12.2128 40.4114 11.9333C40.9517 11.6477 41.6411 11.5048 42.4795 11.5048C43.5849 11.5048 44.5817 11.7874 45.4698 12.3525C46.3641 12.9115 47.0721 13.7406 47.5938 14.8398C48.1217 15.9329 48.3856 17.2743 48.3856 18.8642C48.3856 20.4354 48.1279 21.7707 47.6124 22.8699C47.0969 23.9692 46.3952 24.8076 45.5071 25.3852C44.619 25.9627 43.6129 26.2515 42.4888 26.2515C41.669 26.2515 40.989 26.1149 40.4486 25.8416C39.9083 25.5684 39.4736 25.2392 39.1445 24.8542C38.8215 24.4629 38.57 24.0934 38.3899 23.7456H38.1943V26H34.8779ZM38.1849 18.8456C38.1849 19.7709 38.3154 20.5814 38.5762 21.277C38.8432 21.9725 39.2252 22.5159 39.722 22.9072C40.2251 23.2922 40.8337 23.4848 41.5479 23.4848C42.2931 23.4848 42.9173 23.286 43.4203 22.8886C43.9234 22.4849 44.3022 21.9353 44.5569 21.2397C44.8177 20.5379 44.9481 19.7399 44.9481 18.8456C44.9481 17.9575 44.8208 17.1687 44.5662 16.4794C44.3115 15.79 43.9327 15.2497 43.4297 14.8585C42.9266 14.4672 42.2994 14.2716 41.5479 14.2716C40.8275 14.2716 40.2158 14.461 39.7127 14.8398C39.2097 15.2187 38.8277 15.7497 38.5669 16.4328C38.3123 17.116 38.1849 17.9202 38.1849 18.8456ZM54.6248 6.9215V26H51.2525V6.9215H54.6248ZM58.0925 26V11.6911H61.4648V26H58.0925ZM59.788 9.66031C59.2539 9.66031 58.7943 9.48331 58.4093 9.12932C58.0242 8.76911 57.8317 8.33749 57.8317 7.83444C57.8317 7.32518 58.0242 6.89356 58.4093 6.53956C58.7943 6.17936 59.2539 5.99925 59.788 5.99925C60.3283 5.99925 60.7879 6.17936 61.1667 6.53956C61.5517 6.89356 61.7443 7.32518 61.7443 7.83444C61.7443 8.33749 61.5517 8.76911 61.1667 9.12932C60.7879 9.48331 60.3283 9.66031 59.788 9.66031ZM64.9326 26V11.6911H68.1558V14.1225H68.3235C68.6216 13.3027 69.1153 12.6631 69.8047 12.2035C70.494 11.7377 71.3169 11.5048 72.2733 11.5048C73.2421 11.5048 74.0588 11.7408 74.7233 12.2128C75.3941 12.6786 75.8661 13.3152 76.1393 14.1225H76.2884C76.6051 13.3276 77.1392 12.6941 77.8907 12.2221C78.6483 11.7439 79.5457 11.5048 80.5829 11.5048C81.8995 11.5048 82.9739 11.9209 83.8061 12.7531C84.6383 13.5853 85.0544 14.7995 85.0544 16.3955V26H81.6728V16.9172C81.6728 16.0291 81.4368 15.3801 80.9648 14.9702C80.4928 14.5541 79.9153 14.3461 79.2321 14.3461C78.4185 14.3461 77.782 14.6007 77.3224 15.11C76.869 15.613 76.6424 16.2682 76.6424 17.0756V26H73.3353V16.7775C73.3353 16.0384 73.1117 15.4484 72.6646 15.0075C72.2236 14.5666 71.6461 14.3461 70.9319 14.3461C70.4474 14.3461 70.0065 14.4703 69.609 14.7187C69.2116 14.9609 68.8948 15.3056 68.6588 15.7528C68.4228 16.1937 68.3048 16.7092 68.3048 17.2992V26H64.9326ZM94.8102 26.2795C93.3756 26.2795 92.1366 25.9814 91.0933 25.3852C90.0561 24.7828 89.2581 23.9319 88.6992 22.8327C88.1402 21.7272 87.8608 20.4261 87.8608 18.9294C87.8608 17.4575 88.1402 16.1658 88.6992 15.0541C89.2643 13.9362 90.053 13.0667 91.0653 12.4457C92.0776 11.8184 93.2669 11.5048 94.6332 11.5048C95.5151 11.5048 96.3473 11.6477 97.1298 11.9333C97.9186 12.2128 98.6141 12.6475 99.2166 13.2375C99.8252 13.8275 100.303 14.579 100.651 15.4919C100.999 16.3986 101.173 17.4793 101.173 18.7338V19.7678H89.4444V17.4948H97.9403C97.9341 16.8489 97.7944 16.2744 97.5211 15.7714C97.2478 15.2621 96.8659 14.8616 96.3753 14.5697C95.8909 14.2778 95.3257 14.1318 94.6798 14.1318C93.9905 14.1318 93.3849 14.2995 92.8633 14.6349C92.3416 14.964 91.9348 15.3988 91.6429 15.9391C91.3572 16.4732 91.2113 17.0601 91.2051 17.6997V19.684C91.2051 20.5162 91.3572 21.2304 91.6615 21.8266C91.9659 22.4166 92.3913 22.8699 92.9378 23.1867C93.4843 23.4972 94.124 23.6525 94.8568 23.6525C95.3474 23.6525 95.7915 23.5841 96.189 23.4475C96.5864 23.3047 96.9311 23.0966 97.223 22.8234C97.5149 22.5501 97.7354 22.2116 97.8844 21.8079L101.033 22.1619C100.834 22.9941 100.456 23.7208 99.8966 24.3418C99.3439 24.9566 98.6359 25.4348 97.7726 25.7764C96.9094 26.1118 95.9219 26.2795 94.8102 26.2795ZM110.682 26V6.9215H123.09V9.81868H114.138V14.9982H122.448V17.8954H114.138V23.1028H123.165V26H110.682ZM131.777 26.2515C130.653 26.2515 129.647 25.9627 128.759 25.3852C127.871 24.8076 127.169 23.9692 126.654 22.8699C126.138 21.7707 125.88 20.4354 125.88 18.8642C125.88 17.2743 126.141 15.9329 126.663 14.8398C127.191 13.7406 127.902 12.9115 128.796 12.3525C129.69 11.7874 130.687 11.5048 131.786 11.5048C132.625 11.5048 133.314 11.6477 133.855 11.9333C134.395 12.2128 134.823 12.5513 135.14 12.9487C135.457 13.34 135.702 13.7095 135.876 14.0573H136.016V6.9215H139.397V26H136.081V23.7456H135.876C135.702 24.0934 135.451 24.4629 135.121 24.8542C134.792 25.2392 134.358 25.5684 133.817 25.8416C133.277 26.1149 132.597 26.2515 131.777 26.2515ZM132.718 23.4848C133.432 23.4848 134.041 23.2922 134.544 22.9072C135.047 22.5159 135.429 21.9725 135.69 21.277C135.951 20.5814 136.081 19.7709 136.081 18.8456C136.081 17.9202 135.951 17.116 135.69 16.4328C135.435 15.7497 135.056 15.2187 134.553 14.8398C134.056 14.461 133.445 14.2716 132.718 14.2716C131.967 14.2716 131.339 14.4672 130.836 14.8585C130.333 15.2497 129.954 15.79 129.7 16.4794C129.445 17.1687 129.318 17.9575 129.318 18.8456C129.318 19.7399 129.445 20.5379 129.7 21.2397C129.961 21.9353 130.343 22.4849 130.846 22.8886C131.355 23.286 131.979 23.4848 132.718 23.4848ZM152.111 19.9821V11.6911H155.483V26H152.213V23.4568H152.064C151.741 24.258 151.21 24.9132 150.471 25.4224C149.739 25.9317 148.835 26.1863 147.761 26.1863C146.823 26.1863 145.994 25.9783 145.273 25.5622C144.559 25.1399 144 24.5281 143.596 23.727C143.193 22.9196 142.991 21.9446 142.991 20.8019V11.6911H146.363V20.2802C146.363 21.1869 146.612 21.9073 147.108 22.4414C147.605 22.9755 148.257 23.2426 149.065 23.2426C149.562 23.2426 150.043 23.1215 150.509 22.8792C150.974 22.637 151.356 22.2768 151.654 21.7986C151.959 21.3142 152.111 20.7087 152.111 19.9821ZM165.192 26.2795C163.764 26.2795 162.538 25.9658 161.513 25.3386C160.494 24.7113 159.709 23.845 159.156 22.7395C158.609 21.6278 158.336 20.3485 158.336 18.9015C158.336 17.4482 158.616 16.1658 159.175 15.0541C159.733 13.9362 160.522 13.0667 161.541 12.4457C162.565 11.8184 163.776 11.5048 165.174 11.5048C166.335 11.5048 167.363 11.7191 168.257 12.1476C169.158 12.5699 169.875 13.1692 170.409 13.9455C170.943 14.7156 171.248 15.6161 171.322 16.6471H168.099C167.969 15.9577 167.658 15.3832 167.167 14.9237C166.683 14.4579 166.034 14.225 165.22 14.225C164.531 14.225 163.926 14.4113 163.404 14.7839C162.882 15.1503 162.475 15.6782 162.184 16.3676C161.898 17.057 161.755 17.8829 161.755 18.8456C161.755 19.8206 161.898 20.659 162.184 21.3608C162.469 22.0564 162.87 22.5936 163.385 22.9724C163.907 23.345 164.519 23.5313 165.22 23.5313C165.717 23.5313 166.161 23.4382 166.553 23.2519C166.95 23.0594 167.282 22.783 167.549 22.4228C167.816 22.0626 168 21.6247 168.099 21.1093H171.322C171.241 22.1216 170.943 23.019 170.428 23.8015C169.912 24.5778 169.211 25.1864 168.323 25.6274C167.434 26.0621 166.391 26.2795 165.192 26.2795ZM178.209 26.2888C177.302 26.2888 176.485 26.1273 175.759 25.8044C175.038 25.4752 174.467 24.9908 174.045 24.3511C173.629 23.7114 173.421 22.9227 173.421 21.9849C173.421 21.1776 173.57 20.51 173.868 19.9821C174.166 19.4542 174.573 19.0319 175.088 18.7151C175.604 18.3984 176.184 18.1593 176.83 17.9978C177.482 17.8302 178.156 17.7091 178.852 17.6345C179.69 17.5476 180.37 17.4699 180.892 17.4016C181.413 17.3271 181.792 17.2153 182.028 17.0663C182.27 16.911 182.392 16.6719 182.392 16.349V16.2931C182.392 15.5913 182.183 15.0479 181.767 14.6628C181.351 14.2778 180.752 14.0853 179.969 14.0853C179.143 14.0853 178.488 14.2654 178.004 14.6256C177.526 14.9858 177.203 15.4112 177.035 15.9018L173.886 15.4547C174.135 14.5852 174.545 13.8586 175.116 13.2748C175.687 12.6848 176.386 12.2439 177.212 11.952C178.038 11.6539 178.951 11.5048 179.951 11.5048C180.64 11.5048 181.326 11.5856 182.01 11.747C182.693 11.9085 183.317 12.1755 183.882 12.5482C184.447 12.9146 184.901 13.4145 185.242 14.048C185.59 14.6815 185.764 15.4733 185.764 16.4235V26H182.522V24.0344H182.41C182.205 24.4319 181.916 24.8045 181.544 25.1523C181.177 25.4938 180.715 25.7702 180.156 25.9814C179.603 26.1863 178.954 26.2888 178.209 26.2888ZM179.084 23.8108C179.761 23.8108 180.348 23.6773 180.845 23.4102C181.342 23.137 181.724 22.7768 181.991 22.3296C182.264 21.8825 182.401 21.395 182.401 20.8671V19.1809C182.295 19.2679 182.115 19.3486 181.861 19.4231C181.612 19.4977 181.333 19.5629 181.022 19.6188C180.712 19.6747 180.404 19.7243 180.1 19.7678C179.796 19.8113 179.532 19.8486 179.308 19.8796C178.805 19.9479 178.355 20.0597 177.957 20.215C177.56 20.3702 177.246 20.5876 177.016 20.8671C176.787 21.1403 176.672 21.4943 176.672 21.9291C176.672 22.5501 176.898 23.019 177.352 23.3357C177.805 23.6525 178.383 23.8108 179.084 23.8108ZM196.3 11.6911V14.2995H188.074V11.6911H196.3ZM190.105 8.26296H193.477V21.6962C193.477 22.1495 193.545 22.4973 193.682 22.7395C193.825 22.9755 194.011 23.137 194.241 23.2239C194.471 23.3109 194.725 23.3543 195.005 23.3543C195.216 23.3543 195.409 23.3388 195.583 23.3078C195.763 23.2767 195.899 23.2488 195.992 23.2239L196.561 25.8603C196.381 25.9224 196.123 25.9907 195.787 26.0652C195.458 26.1397 195.055 26.1832 194.576 26.1956C193.732 26.2205 192.971 26.0932 192.294 25.8137C191.617 25.528 191.08 25.0871 190.682 24.4909C190.291 23.8947 190.099 23.1494 190.105 22.2551V8.26296ZM199.12 26V11.6911H202.492V26H199.12ZM200.816 9.66031C200.282 9.66031 199.822 9.48331 199.437 9.12932C199.052 8.76911 198.859 8.33749 198.859 7.83444C198.859 7.32518 199.052 6.89356 199.437 6.53956C199.822 6.17936 200.282 5.99925 200.816 5.99925C201.356 5.99925 201.815 6.17936 202.194 6.53956C202.579 6.89356 202.772 7.32518 202.772 7.83444C202.772 8.33749 202.579 8.76911 202.194 9.12932C201.815 9.48331 201.356 9.66031 200.816 9.66031ZM212.202 26.2795C210.804 26.2795 209.593 25.9721 208.569 25.3572C207.544 24.7424 206.749 23.8822 206.184 22.7768C205.625 21.6713 205.345 20.3795 205.345 18.9015C205.345 17.4234 205.625 16.1285 206.184 15.0168C206.749 13.9052 207.544 13.0419 208.569 12.4271C209.593 11.8122 210.804 11.5048 212.202 11.5048C213.599 11.5048 214.81 11.8122 215.835 12.4271C216.86 13.0419 217.651 13.9052 218.21 15.0168C218.775 16.1285 219.058 17.4234 219.058 18.9015C219.058 20.3795 218.775 21.6713 218.21 22.7768C217.651 23.8822 216.86 24.7424 215.835 25.3572C214.81 25.9721 213.599 26.2795 212.202 26.2795ZM212.22 23.5779C212.978 23.5779 213.611 23.3699 214.121 22.9538C214.63 22.5315 215.009 21.9663 215.257 21.2583C215.512 20.5503 215.639 19.7616 215.639 18.8921C215.639 18.0165 215.512 17.2246 215.257 16.5166C215.009 15.8024 214.63 15.2342 214.121 14.8119C213.611 14.3896 212.978 14.1784 212.22 14.1784C211.444 14.1784 210.798 14.3896 210.283 14.8119C209.773 15.2342 209.391 15.8024 209.137 16.5166C208.888 17.2246 208.764 18.0165 208.764 18.8921C208.764 19.7616 208.888 20.5503 209.137 21.2583C209.391 21.9663 209.773 22.5315 210.283 22.9538C210.798 23.3699 211.444 23.5779 212.22 23.5779ZM225.293 17.6159V26H221.92V11.6911H225.143V14.1225H225.311C225.64 13.3214 226.165 12.6848 226.886 12.2128C227.612 11.7408 228.51 11.5048 229.578 11.5048C230.565 11.5048 231.425 11.716 232.158 12.1383C232.897 12.5606 233.469 13.1723 233.872 13.9735C234.282 14.7746 234.484 15.7466 234.478 16.8893V26H231.106V17.411C231.106 16.4545 230.857 15.7062 230.36 15.1659C229.87 14.6256 229.19 14.3554 228.32 14.3554C227.73 14.3554 227.205 14.4858 226.746 14.7467C226.292 15.0013 225.935 15.3708 225.674 15.8552C225.42 16.3396 225.293 16.9265 225.293 17.6159Z" fill="#093DA2"/>
<path d="M4.72301 46.1776C3.89441 46.1776 3.18221 46.0276 2.58641 45.7277C1.99061 45.4279 1.53093 45.0234 1.20739 44.5144C0.887784 44.0015 0.727983 43.4235 0.727983 42.7803C0.727983 42.295 0.826626 41.8649 1.02391 41.4901C1.22514 41.1152 1.50134 40.768 1.85251 40.4484C2.20762 40.1288 2.61798 39.8112 3.08357 39.4955L5.23201 38.0336C5.54766 37.8284 5.78638 37.6114 5.94815 37.3826C6.11387 37.1537 6.19673 36.8854 6.19673 36.5777C6.19673 36.3172 6.08625 36.0706 5.86529 35.8378C5.64828 35.605 5.34841 35.4886 4.96567 35.4886C4.7092 35.4886 4.48232 35.5498 4.28504 35.6721C4.0917 35.7905 3.93979 35.9463 3.82931 36.1397C3.72277 36.333 3.66951 36.5382 3.66951 36.7552C3.66951 37.0196 3.7425 37.2879 3.88849 37.5601C4.03843 37.8324 4.23177 38.1145 4.46851 38.4065C4.7092 38.6985 4.96567 39.0082 5.23793 39.3357L10.9257 46H8.60559L3.88258 40.5904C3.53141 40.1801 3.19208 39.7756 2.86458 39.3771C2.54104 38.9786 2.2747 38.5643 2.06558 38.1342C1.8604 37.7002 1.75781 37.2307 1.75781 36.7256C1.75781 36.1535 1.88999 35.6425 2.15436 35.1927C2.41872 34.739 2.78764 34.3819 3.26113 34.1214C3.73856 33.861 4.29688 33.7308 4.93608 33.7308C5.57528 33.7308 6.12374 33.8571 6.58144 34.1096C7.03914 34.3621 7.39228 34.6975 7.64086 35.1158C7.88944 35.534 8.01373 35.9897 8.01373 36.483C8.01373 37.0551 7.87169 37.568 7.58759 38.0218C7.3035 38.4716 6.90893 38.88 6.40388 39.2469L3.9536 41.0402C3.55114 41.3322 3.2631 41.6282 3.08949 41.928C2.91588 42.224 2.82907 42.4765 2.82907 42.6856C2.82907 43.0052 2.90996 43.2952 3.07173 43.5556C3.23351 43.8161 3.46039 44.0252 3.75237 44.183C4.0483 44.3369 4.39354 44.4138 4.78812 44.4138C5.22214 44.4138 5.65025 44.3172 6.07244 44.1238C6.49463 43.9265 6.87934 43.6464 7.22656 43.2834C7.57378 42.9204 7.84998 42.4863 8.05516 41.9813C8.26034 41.4723 8.36293 40.9081 8.36293 40.2886H10.2036C10.2036 41.0541 10.1188 41.7209 9.9491 42.2891C9.77943 42.8533 9.56045 43.3307 9.29214 43.7214C9.02383 44.108 8.73974 44.4178 8.43987 44.6506C8.34517 44.7176 8.25442 44.7847 8.16761 44.8518C8.08081 44.9189 7.99006 44.986 7.89536 45.053C7.46922 45.4397 6.97009 45.7238 6.39796 45.9053C5.82978 46.0868 5.27146 46.1776 4.72301 46.1776ZM28.8347 37.7495C28.7361 37.4299 28.5999 37.1439 28.4263 36.8913C28.2566 36.6349 28.0515 36.4159 27.8108 36.2344C27.574 36.0529 27.3018 35.9167 26.994 35.826C26.6863 35.7313 26.3509 35.6839 25.9879 35.6839C25.3368 35.6839 24.7568 35.8477 24.2478 36.1752C23.7388 36.5027 23.3383 36.9841 23.0463 37.6193C22.7583 38.2506 22.6143 39.02 22.6143 39.9276C22.6143 40.843 22.7583 41.6183 23.0463 42.2536C23.3344 42.8888 23.7349 43.3722 24.2478 43.7036C24.7608 44.0311 25.3566 44.1948 26.0352 44.1948C26.6507 44.1948 27.1834 44.0765 27.6332 43.8397C28.087 43.603 28.4362 43.2676 28.6808 42.8336C28.9254 42.3956 29.0478 41.8827 29.0478 41.2947L29.5449 41.3717H26.2542V39.6553H31.1725V41.1113C31.1725 42.149 30.9516 43.0466 30.5096 43.8042C30.0677 44.5618 29.4601 45.1458 28.6867 45.5561C27.9134 45.9625 27.0256 46.1657 26.0234 46.1657C24.9067 46.1657 23.9262 45.9152 23.0819 45.4141C22.2414 44.909 21.5845 44.1929 21.111 43.2656C20.6414 42.3344 20.4067 41.2296 20.4067 39.9512C20.4067 38.9727 20.5448 38.0987 20.821 37.3293C21.1011 36.5599 21.4917 35.9069 21.9928 35.3703C22.4939 34.8297 23.0819 34.4193 23.7566 34.1392C24.4313 33.8551 25.1652 33.7131 25.9583 33.7131C26.629 33.7131 27.2544 33.8117 27.8345 34.009C28.4145 34.2023 28.9294 34.4785 29.3792 34.8376C29.833 35.1967 30.2058 35.6228 30.4978 36.116C30.7898 36.6092 30.9812 37.1537 31.0719 37.7495H28.8347ZM35.4625 46V33.8788H37.6583V44.1593H42.9968V46H35.4625ZM57.4282 39.9394C57.4282 41.2454 57.1836 42.364 56.6943 43.2952C56.209 44.2225 55.5461 44.9327 54.7057 45.4259C53.8692 45.9191 52.9202 46.1657 51.8588 46.1657C50.7974 46.1657 49.8465 45.9191 49.0061 45.4259C48.1696 44.9287 47.5067 44.2165 47.0175 43.2893C46.5321 42.3581 46.2895 41.2415 46.2895 39.9394C46.2895 38.6334 46.5321 37.5167 47.0175 36.5895C47.5067 35.6583 48.1696 34.9461 49.0061 34.4529C49.8465 33.9597 50.7974 33.7131 51.8588 33.7131C52.9202 33.7131 53.8692 33.9597 54.7057 34.4529C55.5461 34.9461 56.209 35.6583 56.6943 36.5895C57.1836 37.5167 57.4282 38.6334 57.4282 39.9394ZM55.2206 39.9394C55.2206 39.02 55.0766 38.2447 54.7885 37.6134C54.5044 36.9781 54.1099 36.4987 53.6048 36.1752C53.0998 35.8477 52.5178 35.6839 51.8588 35.6839C51.1999 35.6839 50.6179 35.8477 50.1129 36.1752C49.6078 36.4987 49.2113 36.9781 48.9232 37.6134C48.6391 38.2447 48.4971 39.02 48.4971 39.9394C48.4971 40.8587 48.6391 41.636 48.9232 42.2713C49.2113 42.9026 49.6078 43.382 50.1129 43.7095C50.6179 44.0331 51.1999 44.1948 51.8588 44.1948C52.5178 44.1948 53.0998 44.0331 53.6048 43.7095C54.1099 43.382 54.5044 42.9026 54.7885 42.2713C55.0766 41.636 55.2206 40.8587 55.2206 39.9394ZM61.6708 46V33.8788H66.311C67.1869 33.8788 67.9149 34.0169 68.4949 34.2931C69.0789 34.5653 69.5149 34.9382 69.8029 35.4117C70.0949 35.8852 70.2409 36.4218 70.2409 37.0215C70.2409 37.5148 70.1462 37.9369 69.9568 38.2881C69.7674 38.6353 69.5129 38.9175 69.1933 39.1345C68.8737 39.3515 68.5166 39.5073 68.122 39.602V39.7204C68.5521 39.7441 68.9644 39.8763 69.359 40.117C69.7575 40.3537 70.0831 40.6891 70.3356 41.1231C70.5881 41.5571 70.7144 42.0819 70.7144 42.6974C70.7144 43.3248 70.5625 43.889 70.2586 44.3902C69.9548 44.8873 69.4971 45.2799 68.8855 45.5679C68.2739 45.856 67.5045 46 66.5773 46H61.6708ZM63.8666 44.1652H66.2281C67.0251 44.1652 67.5992 44.0133 67.9504 43.7095C68.3055 43.4018 68.4831 43.0072 68.4831 42.5258C68.4831 42.1667 68.3943 41.8432 68.2167 41.5552C68.0392 41.2632 67.7867 41.0343 67.4592 40.8686C67.1317 40.6989 66.741 40.6141 66.2873 40.6141H63.8666V44.1652ZM63.8666 39.0339H66.0387C66.4175 39.0339 66.7588 38.9648 67.0626 38.8267C67.3664 38.6847 67.6052 38.4854 67.7788 38.2289C67.9563 37.9685 68.0451 37.6607 68.0451 37.3056C68.0451 36.8361 67.8794 36.4494 67.5479 36.1456C67.2204 35.8418 66.7331 35.6899 66.0861 35.6899H63.8666V39.0339ZM76.3478 46H74.0041L78.2714 33.8788H80.9821L85.2553 46H82.9115L79.6741 36.3646H79.5794L76.3478 46ZM76.4248 41.2474H82.8168V43.0111H76.4248V41.2474ZM89.0185 46V33.8788H91.2142V44.1593H96.5528V46H89.0185ZM106.926 46V33.8788H111.471C112.403 33.8788 113.184 34.0406 113.815 34.3641C114.45 34.6877 114.93 35.1414 115.253 35.7254C115.581 36.3054 115.745 36.9821 115.745 37.7554C115.745 38.5327 115.579 39.2075 115.248 39.7796C114.92 40.3478 114.437 40.7877 113.797 41.0994C113.158 41.4072 112.373 41.5611 111.442 41.5611H108.204V39.7382H111.146C111.69 39.7382 112.136 39.6632 112.484 39.5133C112.831 39.3594 113.087 39.1364 113.253 38.8445C113.423 38.5485 113.507 38.1855 113.507 37.7554C113.507 37.3254 113.423 36.9584 113.253 36.6546C113.083 36.3468 112.825 36.114 112.478 35.9562C112.13 35.7944 111.683 35.7135 111.134 35.7135H109.122V46H106.926ZM113.188 40.5076L116.189 46H113.738L110.791 40.5076H113.188ZM119.933 46V33.8788H127.816V35.7195H122.128V39.0102H127.408V40.8509H122.128V44.1593H127.863V46H119.933ZM138.81 37.2109C138.755 36.6941 138.522 36.2916 138.112 36.0036C137.705 35.7155 137.177 35.5715 136.526 35.5715C136.068 35.5715 135.675 35.6405 135.348 35.7786C135.02 35.9167 134.77 36.1042 134.596 36.3409C134.423 36.5777 134.334 36.8479 134.33 37.1518C134.33 37.4043 134.387 37.6233 134.502 37.8087C134.62 37.9942 134.78 38.152 134.981 38.2822C135.182 38.4085 135.405 38.515 135.65 38.6018C135.894 38.6886 136.141 38.7616 136.39 38.8208L137.526 39.1049C137.984 39.2114 138.424 39.3554 138.846 39.5369C139.272 39.7184 139.653 39.9473 139.988 40.2235C140.327 40.4997 140.596 40.8331 140.793 41.2237C140.99 41.6143 141.089 42.072 141.089 42.5968C141.089 43.3071 140.907 43.9324 140.544 44.473C140.181 45.0096 139.657 45.4298 138.97 45.7337C138.287 46.0335 137.461 46.1835 136.49 46.1835C135.547 46.1835 134.728 46.0375 134.034 45.7455C133.343 45.4535 132.803 45.0274 132.412 44.4671C132.026 43.9068 131.816 43.2242 131.785 42.4193H133.945C133.977 42.8415 134.107 43.1926 134.336 43.4728C134.565 43.7529 134.863 43.962 135.23 44.1001C135.6 44.2382 136.015 44.3073 136.472 44.3073C136.95 44.3073 137.368 44.2363 137.727 44.0942C138.09 43.9482 138.374 43.747 138.579 43.4905C138.785 43.2301 138.889 42.9263 138.893 42.5791C138.889 42.2634 138.796 42.003 138.615 41.7978C138.433 41.5887 138.179 41.4151 137.851 41.277C137.528 41.1349 137.149 41.0087 136.715 40.8982L135.336 40.5431C134.338 40.2866 133.549 39.898 132.969 39.3771C132.393 38.8524 132.105 38.1559 132.105 37.2879C132.105 36.5737 132.298 35.9483 132.685 35.4117C133.075 34.8751 133.606 34.4588 134.277 34.1629C134.947 33.863 135.707 33.7131 136.555 33.7131C137.415 33.7131 138.169 33.863 138.816 34.1629C139.467 34.4588 139.978 34.8711 140.349 35.3999C140.72 35.9246 140.911 36.5283 140.923 37.2109H138.81ZM156.044 39.9394C156.044 41.2454 155.799 42.364 155.31 43.2952C154.825 44.2225 154.162 44.9327 153.322 45.4259C152.485 45.9191 151.536 46.1657 150.475 46.1657C149.413 46.1657 148.462 45.9191 147.622 45.4259C146.785 44.9287 146.123 44.2165 145.633 43.2893C145.148 42.3581 144.905 41.2415 144.905 39.9394C144.905 38.6334 145.148 37.5167 145.633 36.5895C146.123 35.6583 146.785 34.9461 147.622 34.4529C148.462 33.9597 149.413 33.7131 150.475 33.7131C151.536 33.7131 152.485 33.9597 153.322 34.4529C154.162 34.9461 154.825 35.6583 155.31 36.5895C155.799 37.5167 156.044 38.6334 156.044 39.9394ZM153.836 39.9394C153.836 39.02 153.692 38.2447 153.404 37.6134C153.12 36.9781 152.726 36.4987 152.221 36.1752C151.716 35.8477 151.134 35.6839 150.475 35.6839C149.816 35.6839 149.234 35.8477 148.729 36.1752C148.224 36.4987 147.827 36.9781 147.539 37.6134C147.255 38.2447 147.113 39.02 147.113 39.9394C147.113 40.8587 147.255 41.636 147.539 42.2713C147.827 42.9026 148.224 43.382 148.729 43.7095C149.234 44.0331 149.816 44.1948 150.475 44.1948C151.134 44.1948 151.716 44.0331 152.221 43.7095C152.726 43.382 153.12 42.9026 153.404 42.2713C153.692 41.636 153.836 40.8587 153.836 39.9394ZM167.928 33.8788H170.123V41.7978C170.123 42.6659 169.918 43.4294 169.508 44.0883C169.101 44.7472 168.529 45.2622 167.791 45.633C167.054 46 166.191 46.1835 165.205 46.1835C164.215 46.1835 163.351 46 162.613 45.633C161.875 45.2622 161.303 44.7472 160.896 44.0883C160.49 43.4294 160.287 42.6659 160.287 41.7978V33.8788H162.482V41.6143C162.482 42.1194 162.593 42.5692 162.814 42.9638C163.039 43.3583 163.354 43.6681 163.761 43.893C164.167 44.114 164.649 44.2244 165.205 44.2244C165.761 44.2244 166.243 44.114 166.649 43.893C167.059 43.6681 167.375 43.3583 167.596 42.9638C167.817 42.5692 167.928 42.1194 167.928 41.6143V33.8788ZM174.677 46V33.8788H179.222C180.153 33.8788 180.935 34.0406 181.566 34.3641C182.201 34.6877 182.681 35.1414 183.004 35.7254C183.332 36.3054 183.495 36.9821 183.495 37.7554C183.495 38.5327 183.33 39.2075 182.998 39.7796C182.671 40.3478 182.187 40.7877 181.548 41.0994C180.909 41.4072 180.124 41.5611 179.193 41.5611H175.955V39.7382H178.897C179.441 39.7382 179.887 39.6632 180.234 39.5133C180.581 39.3594 180.838 39.1364 181.004 38.8445C181.173 38.5485 181.258 38.1855 181.258 37.7554C181.258 37.3254 181.173 36.9584 181.004 36.6546C180.834 36.3468 180.575 36.114 180.228 35.9562C179.881 35.7944 179.433 35.7135 178.885 35.7135H176.872V46H174.677ZM180.938 40.5076L183.939 46H181.489L178.541 40.5076H180.938ZM198.058 37.9685H195.845C195.782 37.6055 195.665 37.2839 195.496 37.0038C195.326 36.7197 195.115 36.479 194.862 36.2817C194.61 36.0844 194.322 35.9365 193.998 35.8378C193.679 35.7352 193.333 35.6839 192.963 35.6839C192.304 35.6839 191.72 35.8497 191.211 36.1811C190.702 36.5086 190.303 36.99 190.015 37.6252C189.727 38.2565 189.583 39.0279 189.583 39.9394C189.583 40.8666 189.727 41.6479 190.015 42.2831C190.307 42.9145 190.706 43.3919 191.211 43.7154C191.72 44.035 192.302 44.1948 192.957 44.1948C193.32 44.1948 193.659 44.1475 193.975 44.0528C194.294 43.9542 194.58 43.8101 194.833 43.6207C195.089 43.4313 195.304 43.1985 195.478 42.9223C195.655 42.6461 195.778 42.3305 195.845 41.9754L198.058 41.9872C197.976 42.5633 197.796 43.1039 197.52 43.6089C197.248 44.114 196.89 44.5598 196.449 44.9465C196.007 45.3292 195.49 45.6291 194.898 45.8461C194.306 46.0592 193.649 46.1657 192.927 46.1657C191.862 46.1657 190.911 45.9191 190.074 45.4259C189.238 44.9327 188.579 44.2205 188.097 43.2893C187.616 42.3581 187.375 41.2415 187.375 39.9394C187.375 38.6334 187.618 37.5167 188.103 36.5895C188.589 35.6583 189.25 34.9461 190.086 34.4529C190.923 33.9597 191.87 33.7131 192.927 33.7131C193.602 33.7131 194.229 33.8078 194.809 33.9972C195.389 34.1866 195.906 34.4647 196.36 34.8317C196.814 35.1947 197.186 35.6405 197.478 36.1693C197.774 36.6941 197.968 37.2938 198.058 37.9685ZM202.236 46V33.8788H210.119V35.7195H204.432V39.0102H209.711V40.8509H204.432V44.1593H210.167V46H202.236ZM221.114 37.2109C221.058 36.6941 220.826 36.2916 220.415 36.0036C220.009 35.7155 219.48 35.5715 218.829 35.5715C218.371 35.5715 217.979 35.6405 217.651 35.7786C217.324 35.9167 217.073 36.1042 216.9 36.3409C216.726 36.5777 216.637 36.8479 216.633 37.1518C216.633 37.4043 216.69 37.6233 216.805 37.8087C216.923 37.9942 217.083 38.152 217.284 38.2822C217.486 38.4085 217.708 38.515 217.953 38.6018C218.198 38.6886 218.444 38.7616 218.693 38.8208L219.829 39.1049C220.287 39.2114 220.727 39.3554 221.149 39.5369C221.575 39.7184 221.956 39.9473 222.291 40.2235C222.631 40.4997 222.899 40.8331 223.096 41.2237C223.294 41.6143 223.392 42.072 223.392 42.5968C223.392 43.3071 223.211 43.9324 222.848 44.473C222.485 45.0096 221.96 45.4298 221.273 45.7337C220.591 46.0335 219.764 46.1835 218.794 46.1835C217.851 46.1835 217.032 46.0375 216.337 45.7455C215.647 45.4535 215.106 45.0274 214.716 44.4671C214.329 43.9068 214.12 43.2242 214.088 42.4193H216.249C216.28 42.8415 216.41 43.1926 216.639 43.4728C216.868 43.7529 217.166 43.962 217.533 44.1001C217.904 44.2382 218.318 44.3073 218.776 44.3073C219.253 44.3073 219.671 44.2363 220.031 44.0942C220.394 43.9482 220.678 43.747 220.883 43.4905C221.088 43.2301 221.193 42.9263 221.196 42.5791C221.193 42.2634 221.1 42.003 220.918 41.7978C220.737 41.5887 220.482 41.4151 220.155 41.277C219.831 41.1349 219.452 41.0087 219.018 40.8982L217.639 40.5431C216.641 40.2866 215.852 39.898 215.272 39.3771C214.696 38.8524 214.408 38.1559 214.408 37.2879C214.408 36.5737 214.601 35.9483 214.988 35.4117C215.379 34.8751 215.909 34.4588 216.58 34.1629C217.251 33.863 218.01 33.7131 218.859 33.7131C219.719 33.7131 220.472 33.863 221.12 34.1629C221.771 34.4588 222.282 34.8711 222.652 35.3999C223.023 35.9246 223.215 36.5283 223.227 37.2109H221.114Z" fill="#093DA2"/>
</svg>
